<svg version="1" xmlns="http://www.w3.org/2000/svg" width="682.667" height="682.667" viewBox="0 0 512.000000 512.000000"><path d="M47.5 1.4C36.7 4.8 30.3 11.4 28.3 21c-1 4.9-.5 13.6 1.2 19.9 1.3 5.1 43.6 103.7 56.6 131.9 1.6 3.5 2.9 6.5 2.9 6.7 0 .3 1.1 2.8 2.4 5.7 1.3 2.9 7.9 17.9 14.6 33.3 6.7 15.4 12.8 29.3 13.5 31 .8 1.6 24.4 55.6 52.5 120 28.1 64.3 52.3 119.5 53.8 122.5 3.5 7.2 9.4 13.5 15.7 16.8 4.3 2.2 6.3 2.6 14.5 2.6 8.4 0 10.1-.3 14.6-2.6 2.7-1.5 6.7-4.5 8.7-6.7 4-4.4 4.1-4.7 18.5-37.6 5.5-12.7 17.1-39.2 25.7-59 8.7-19.8 17.7-40.7 20.2-46.5 2.5-5.8 5.3-12.3 6.3-14.5 1-2.2 4.8-11 8.5-19.5s7.5-17.3 8.5-19.5c1-2.2 12.7-29 26-59.5 13.2-30.5 25.3-58 26.7-61 1.4-3 3.3-7.6 4.3-10.1 1.1-2.6 2.8-6.6 3.9-9 8.3-18.1 54.2-124.6 55.1-128 4.1-15.3-1.7-29.1-14.9-35.2C463.6.5 462.7.5 402.9.2c-63.5-.2-62.6-.3-69.1 4.1-3.5 2.4-6.9 9.5-7 14.7-.1 5.3 1.8 9.6 6.1 14.3 18 19.6 28.3 45.1 28.4 70.7 0 14.1-.8 20.3-4.4 32.4-8.1 27.1-27.4 49.9-53.8 63.5-5.5 2.8-10.3 5.6-10.6 6.2-.4.5-1.2 3.1-1.8 5.7-1.2 4.6-1.4 4.8-10.7 9.7-8.1 4.3-9.5 5.4-9.5 7.5 0 2.1 1.2 3.1 7.8 6.6 10.4 5.4 12.2 7.3 12.2 12.9 0 6-1.7 7.5-16.7 15-12.2 6.1-14.3 8-11.8 10.9.6.8 6.6 4.2 13.4 7.6 13.6 6.8 16.3 9.5 15.2 15.4-.8 4.3-3.7 6.8-12.5 11.2-11 5.4-10.9 7.5 1 13.5 9.5 4.8 11.2 6.7 11.2 12.4 0 5.8-1.5 7.4-11.4 12.2-12 5.8-11.8 8.2 1.2 14.7 14.7 7.3 14.5 11.1-1 19.3-12.9 6.9-13.3 7.5-13.7 17-.2 4.2-.8 8.1-1.4 8.7-.6.6-4.7 1.1-9.3 1.1-6.8 0-9.1-.5-13.7-2.7-9-4.3-15.4-11.4-18.6-20.3-1.6-4.6-1.7-11.5-1.9-90 0-46.8-.5-86-.9-87.3-.5-1.5-3.4-3.6-8.9-6.4-25.9-13-44.2-33-54-59.4-6.1-16.2-7.9-39.8-4.3-55.9 4.3-19.8 12.5-35.9 25.9-51.3 5.5-6.3 6.7-9.2 6.7-16.4 0-7.2-5.9-14.8-13-16.8-5.4-1.6-119.4-1.2-124.5.4z"/><path d="M250.2 17.2c-10.8 1.8-21 9.6-26 19.8-2.4 4.9-2.7 6.6-2.6 15 0 7.5.5 10.5 2.2 14.1 3.4 7.3 9.5 13.4 17 17.1 5.9 2.9 7.6 3.3 15.2 3.3 7.1 0 9.4-.4 14.1-2.6 7.9-3.7 13.3-9 17.1-16.7 3-6 3.3-7.5 3.3-15.7 0-7.8-.4-9.7-2.7-14.6-6.9-14-22.7-22.3-37.6-19.7z"/></svg>